<mxfile host="65bd71144e" modified="2020-11-03T11:08:49.346Z" agent="5.0 (Macintosh; Intel Mac OS X 10_15_7) AppleWebKit/537.36 (KHTML, like Gecko) Code/1.50.1 Chrome/83.0.4103.122 Electron/9.2.1 Safari/537.36" etag="Wg7QmDEJUYWTxzWwp0T7" version="13.6.5">
    <diagram id="oU5uA1iXkr2jlbdJMO_b" name="ページ1">
        <mxGraphModel dx="765" dy="854" grid="0" gridSize="10" guides="1" tooltips="1" connect="1" arrows="1" fold="1" page="1" pageScale="1" pageWidth="827" pageHeight="1169" math="0" shadow="0">
            <root>
                <mxCell id="0"/>
                <mxCell id="1" parent="0"/>
                <mxCell id="14" value="&lt;h1&gt;&lt;span style=&quot;font-weight: normal&quot;&gt;users&lt;/span&gt;&lt;/h1&gt;&lt;div&gt;&lt;span style=&quot;font-weight: normal&quot;&gt;&lt;br&gt;&lt;/span&gt;&lt;/div&gt;" style="rounded=0;whiteSpace=wrap;html=1;fontFamily=Helvetica;align=center;" parent="1" vertex="1">
                    <mxGeometry x="42" y="242" width="160" height="50" as="geometry"/>
                </mxCell>
                <mxCell id="17" value="&lt;font style=&quot;font-size: 15px&quot;&gt;・nickname&lt;br&gt;&lt;span&gt;・email&lt;br&gt;&lt;/span&gt;・password&lt;br&gt;・password_confirm&lt;br&gt;・birthday&lt;br&gt;・lastname&lt;br&gt;・firstname&lt;br&gt;・katakana-lastname&lt;br&gt;・katakana-firstname&lt;br&gt;&lt;/font&gt;" style="rounded=0;whiteSpace=wrap;html=1;fontFamily=Helvetica;align=left;" parent="1" vertex="1">
                    <mxGeometry x="42" y="295" width="160" height="203" as="geometry"/>
                </mxCell>
                <mxCell id="19" value="&lt;h1&gt;items&lt;/h1&gt;" style="rounded=0;whiteSpace=wrap;html=1;fontFamily=Helvetica;align=center;" parent="1" vertex="1">
                    <mxGeometry x="427.25" y="249" width="149" height="50" as="geometry"/>
                </mxCell>
                <mxCell id="24" value="&lt;h1&gt;addresses&lt;/h1&gt;" style="rounded=0;whiteSpace=wrap;html=1;sketch=0;align=center;" parent="1" vertex="1">
                    <mxGeometry x="418" y="603" width="140" height="60" as="geometry"/>
                </mxCell>
                <mxCell id="25" value="&lt;p&gt;&lt;br&gt;&lt;/p&gt;&lt;p style=&quot;font-size: 13px&quot;&gt;&lt;font style=&quot;font-size: 13px&quot;&gt;・address-number&lt;/font&gt;&lt;/p&gt;&lt;p style=&quot;font-size: 13px&quot;&gt;&lt;span&gt;&lt;font style=&quot;font-size: 13px&quot;&gt;・prefecture&lt;/font&gt;&lt;/span&gt;&lt;/p&gt;&lt;p style=&quot;font-size: 13px&quot;&gt;&lt;span&gt;&lt;font style=&quot;font-size: 13px&quot;&gt;・city&lt;/font&gt;&lt;/span&gt;&lt;/p&gt;&lt;p style=&quot;font-size: 13px&quot;&gt;・place&lt;/p&gt;&lt;p style=&quot;font-size: 13px&quot;&gt;・building-name&lt;/p&gt;&lt;p style=&quot;font-size: 13px&quot;&gt;&lt;font style=&quot;font-size: 13px&quot;&gt;・phone-number&lt;/font&gt;&lt;/p&gt;&lt;p style=&quot;font-size: 13px&quot;&gt;&lt;font style=&quot;font-size: 13px&quot;&gt;&lt;br&gt;&lt;/font&gt;&lt;/p&gt;&lt;p style=&quot;font-size: 13px&quot;&gt;&lt;br&gt;&lt;/p&gt;" style="rounded=0;whiteSpace=wrap;html=1;sketch=0;align=left;" parent="1" vertex="1">
                    <mxGeometry x="417" y="665" width="142" height="221" as="geometry"/>
                </mxCell>
                <mxCell id="66" style="edgeStyle=orthogonalEdgeStyle;rounded=0;orthogonalLoop=1;jettySize=auto;html=1;exitX=0.25;exitY=1;exitDx=0;exitDy=0;" parent="1" source="26" edge="1">
                    <mxGeometry relative="1" as="geometry">
                        <mxPoint x="79" y="694.7350921630859" as="targetPoint"/>
                    </mxGeometry>
                </mxCell>
                <mxCell id="26" value="&lt;h1&gt;records&lt;/h1&gt;" style="rounded=0;whiteSpace=wrap;html=1;sketch=0;align=center;" parent="1" vertex="1">
                    <mxGeometry x="30" y="655" width="159" height="60" as="geometry"/>
                </mxCell>
                <mxCell id="30" value="&lt;div style=&quot;font-size: 14px&quot;&gt;&lt;font style=&quot;font-size: 14px&quot;&gt;・user-name&lt;/font&gt;&lt;/div&gt;&lt;div style=&quot;font-size: 14px&quot;&gt;&lt;span&gt;&lt;font style=&quot;font-size: 14px&quot;&gt;・purchase-date&lt;/font&gt;&lt;/span&gt;&lt;/div&gt;&lt;div style=&quot;font-size: 14px&quot;&gt;&lt;font style=&quot;font-size: 14px&quot;&gt;・items-name&lt;/font&gt;&lt;/div&gt;" style="rounded=0;whiteSpace=wrap;html=1;sketch=0;align=left;" parent="1" vertex="1">
                    <mxGeometry x="33" y="719" width="159" height="139" as="geometry"/>
                </mxCell>
                <mxCell id="32" value="" style="endArrow=none;html=1;" parent="1" edge="1">
                    <mxGeometry width="50" height="50" relative="1" as="geometry">
                        <mxPoint x="207" y="378" as="sourcePoint"/>
                        <mxPoint x="410" y="378" as="targetPoint"/>
                    </mxGeometry>
                </mxCell>
                <mxCell id="39" value="" style="endArrow=none;html=1;" parent="1" edge="1">
                    <mxGeometry width="50" height="50" relative="1" as="geometry">
                        <mxPoint x="107" y="653" as="sourcePoint"/>
                        <mxPoint x="107" y="502" as="targetPoint"/>
                    </mxGeometry>
                </mxCell>
                <mxCell id="40" value="" style="endArrow=none;html=1;" parent="1" edge="1">
                    <mxGeometry width="50" height="50" relative="1" as="geometry">
                        <mxPoint x="202" y="707" as="sourcePoint"/>
                        <mxPoint x="408" y="707" as="targetPoint"/>
                    </mxGeometry>
                </mxCell>
                <mxCell id="42" value="" style="endArrow=none;html=1;" parent="1" edge="1">
                    <mxGeometry width="50" height="50" relative="1" as="geometry">
                        <mxPoint x="192" y="729" as="sourcePoint"/>
                        <mxPoint x="192" y="697" as="targetPoint"/>
                        <Array as="points">
                            <mxPoint x="232" y="705"/>
                        </Array>
                    </mxGeometry>
                </mxCell>
                <mxCell id="44" value="" style="endArrow=none;html=1;" parent="1" edge="1">
                    <mxGeometry width="50" height="50" relative="1" as="geometry">
                        <mxPoint x="199" y="653" as="sourcePoint"/>
                        <mxPoint x="412" y="448" as="targetPoint"/>
                    </mxGeometry>
                </mxCell>
                <mxCell id="45" value="" style="endArrow=none;html=1;exitX=0;exitY=0;exitDx=0;exitDy=0;" parent="1" source="24" edge="1">
                    <mxGeometry width="50" height="50" relative="1" as="geometry">
                        <mxPoint x="412" y="598" as="sourcePoint"/>
                        <mxPoint x="204" y="447" as="targetPoint"/>
                    </mxGeometry>
                </mxCell>
                <mxCell id="49" value="" style="endArrow=none;html=1;" parent="1" edge="1">
                    <mxGeometry width="50" height="50" relative="1" as="geometry">
                        <mxPoint x="496" y="473" as="sourcePoint"/>
                        <mxPoint x="496" y="592" as="targetPoint"/>
                    </mxGeometry>
                </mxCell>
                <mxCell id="51" value="" style="endArrow=none;html=1;" parent="1" edge="1">
                    <mxGeometry width="50" height="50" relative="1" as="geometry">
                        <mxPoint x="109" y="603" as="sourcePoint"/>
                        <mxPoint x="145" y="646" as="targetPoint"/>
                    </mxGeometry>
                </mxCell>
                <mxCell id="55" value="" style="endArrow=none;html=1;" parent="1" edge="1">
                    <mxGeometry width="50" height="50" relative="1" as="geometry">
                        <mxPoint x="68" y="649" as="sourcePoint"/>
                        <mxPoint x="105" y="599" as="targetPoint"/>
                    </mxGeometry>
                </mxCell>
                <mxCell id="61" value="" style="endArrow=none;html=1;" parent="1" edge="1">
                    <mxGeometry width="50" height="50" relative="1" as="geometry">
                        <mxPoint x="367" y="374" as="sourcePoint"/>
                        <mxPoint x="417" y="324" as="targetPoint"/>
                    </mxGeometry>
                </mxCell>
                <mxCell id="62" value="" style="endArrow=none;html=1;" parent="1" edge="1">
                    <mxGeometry width="50" height="50" relative="1" as="geometry">
                        <mxPoint x="414" y="430" as="sourcePoint"/>
                        <mxPoint x="367" y="380" as="targetPoint"/>
                    </mxGeometry>
                </mxCell>
                <mxCell id="65" value="" style="endArrow=none;html=1;" parent="1" edge="1">
                    <mxGeometry width="50" height="50" relative="1" as="geometry">
                        <mxPoint x="164" y="648" as="sourcePoint"/>
                        <mxPoint x="214" y="632" as="targetPoint"/>
                    </mxGeometry>
                </mxCell>
                <mxCell id="67" value="" style="endArrow=none;html=1;" parent="1" edge="1">
                    <mxGeometry width="50" height="50" relative="1" as="geometry">
                        <mxPoint x="198" y="691" as="sourcePoint"/>
                        <mxPoint x="225.40495867768595" y="628" as="targetPoint"/>
                    </mxGeometry>
                </mxCell>
                <mxCell id="68" value="&lt;p&gt;・item&lt;/p&gt;&lt;p&gt;&lt;span&gt;・item-info&lt;/span&gt;&lt;/p&gt;・categor&lt;br&gt;&lt;span&gt;・item-status&lt;/span&gt;&lt;br&gt;・burden-charges&lt;br&gt;・days-ship&lt;br&gt;・fee" style="rounded=0;whiteSpace=wrap;html=1;align=left;" parent="1" vertex="1">
                    <mxGeometry x="424.75" y="305" width="151.5" height="157" as="geometry"/>
                </mxCell>
            </root>
        </mxGraphModel>
    </diagram>
</mxfile>